<?xml version="1.0" encoding="UTF-8" standalone="no"?>
<!-- Created with Inkscape (http://www.inkscape.org/) -->

<svg width="151.0723mm" height="214.07201mm" viewBox="0 0 151.0723 214.072" version="1.1" id="svg1" inkscape:version="1.3.2 (091e20e, 2023-11-25, custom)" sodipodi:docname="18650_battery_shield_double.svg" xml:space="preserve" inkscape:export-filename="casing_rpi.svg" inkscape:export-xdpi="96" inkscape:export-ydpi="96" xmlns:inkscape="http://www.inkscape.org/namespaces/inkscape" xmlns:sodipodi="http://sodipodi.sourceforge.net/DTD/sodipodi-0.dtd" xmlns="http://www.w3.org/2000/svg" xmlns:svg="http://www.w3.org/2000/svg"><sodipodi:namedview id="namedview1" pagecolor="#ffffff" bordercolor="#000000" borderopacity="0.25" inkscape:showpageshadow="2" inkscape:pageopacity="0.0" inkscape:pagecheckerboard="0" inkscape:deskcolor="#d1d1d1" inkscape:document-units="mm" showgrid="true" inkscape:zoom="1" inkscape:cx="348.49999" inkscape:cy="400.49999" inkscape:window-width="2560" inkscape:window-height="1369" inkscape:window-x="-8" inkscape:window-y="-8" inkscape:window-maximized="1" inkscape:current-layer="layer1" showguides="false"><inkscape:grid id="grid1" units="mm" originx="-149.96392" originy="-331.96398" spacingx="0.99999997" spacingy="0.99999997" empcolor="#0099e5" empopacity="0.30196078" color="#0099e5" opacity="0.14901961" empspacing="5" dotted="false" gridanglex="30" gridanglez="30" visible="true" /><sodipodi:guide position="95.036064,3056.8198" orientation="1,0" id="guide5" inkscape:locked="false" /><sodipodi:guide position="95.036064,3056.8198" orientation="0,-1" id="guide6" inkscape:locked="false" /><sodipodi:guide position="10.036077,3056.8198" orientation="1,0" id="guide7" inkscape:locked="false" /><sodipodi:guide position="10.036077,3000.8198" orientation="0,-1" id="guide8" inkscape:locked="false" /></sodipodi:namedview><defs id="defs1" /><g inkscape:label="Layer 1" inkscape:groupmode="layer" id="layer1" transform="translate(-149.96392,-331.96397)"><path id="rect10-7-4-6" style="fill:none;fill-opacity:0.538163;stroke:#000000;stroke-width:0.0719999" d="m 237.00001,529.00015 h 10.99994 c 0.554,0 1,0.44601 1,1 v 7.99998 c 0,0.55401 -0.446,1 -1,1 h -10.99994 c -0.554,0 -1,-0.44599 -1,-1 v -7.99998 c 0,-0.55399 0.446,-1 1,-1 z m -73.50006,-16.00023 v 3.00034 h -13.49996 v 26.9999 h 13.49996 v 2.99982 h 10.99984 v -2.99982 h 24.00009 v 2.99982 h 10.99984 v -2.99982 h 24.00009 v 2.99982 h 11.00036 v -2.99982 h 13.49995 v -26.9999 h -13.49995 v -3.00034 h -11.00036 v 3.00034 h -24.00009 v -3.00034 h -10.99984 v 3.00034 h -24.00009 v -3.00034 z m 24.50009,16.50003 a 1.5,1.5 0 0 1 -1.5,1.5 1.5,1.5 0 0 1 -1.5,-1.5 1.5,1.5 0 0 1 1.5,-1.5 1.5,1.5 0 0 1 1.5,1.5 z m 35.00003,0 a 1.5,1.5 0 0 1 -1.5,1.5 1.5,1.5 0 0 1 -1.5,-1.5 1.5,1.5 0 0 1 1.5,-1.5 1.5,1.5 0 0 1 1.5,1.5 z" /><path id="rect3-3-7-8-6-3-1-8-2-19-1-0" style="fill:none;stroke:#000000;stroke-width:0.072" d="m 154.4999,367.5 v 11 h -3 v -11 z m 0,-22 v 11 h -3 v -11 z m 105.00003,22 v 11 h -3 v -11 z m 0,-22 v 11 h -3 v -11 z m -24.5,41.5 h 11 v 3 h -11 z m -70.00003,0 h 11 v 3 h -11 z m 35,0 h 11 v 3 h -11 z m 35.00003,-53 h 11 v 3 h -11 z m -70.00003,0 h 11 v 3 h -11 z m 35,0 h 11 v 3 h -11 z m -40.5,45 a 1.5,1.5 0 0 1 -1.5,1.5 1.5,1.5 0 0 1 -1.5,-1.5 1.5,1.5 0 0 1 1.5,-1.5 1.5,1.5 0 0 1 1.5,1.5 z m 0,-33 a 1.5,1.5 0 0 1 -1.5,1.5 1.5,1.5 0 0 1 -1.5,-1.5 1.5,1.5 0 0 1 1.5,-1.5 1.5,1.5 0 0 1 1.5,1.5 z m 95.00003,33 a 1.5,1.5 0 0 1 -1.5,1.5 1.5,1.5 0 0 1 -1.5,-1.5 1.5,1.5 0 0 1 1.5,-1.5 1.5,1.5 0 0 1 1.5,1.5 z m 0,-33 a 1.5,1.5 0 0 1 -1.5,1.5 1.5,1.5 0 0 1 -1.5,-1.5 1.5,1.5 0 0 1 1.5,-1.5 1.5,1.5 0 0 1 1.5,1.5 z M 151.99992,331.99998 h 107 c 1.108,0 2,0.892 2,2 v 56 c 0,1.108 -0.892,2 -2,2 h -107 c -1.108,0 -2,-0.892 -2,-2 v -56 c 0,-1.108 0.892,-2 2,-2 z" /><path id="rect3-3-7-8-6-3-1-8-2-19-1-0-9" style="fill:none;stroke:#000000;stroke-width:0.072" d="m 154.4999,477.5 v 11 h -3 v -11 z m 0,-22 v 11 h -3 v -11 z m 105.00003,22 v 11 h -3 v -11 z m 0,-22 v 11 h -3 v -11 z m -24.5,41.5 h 11 v 3 h -11 z m -70.00003,0 h 11 v 3 h -11 z m 35,0 h 11 v 3 h -11 z m 35.00003,-53 h 11 v 3 h -11 z m -70.00003,0 h 11 v 3 h -11 z m 35,0 h 11 v 3 h -11 z m -40.5,45 a 1.5,1.5 0 0 1 -1.5,1.5 1.5,1.5 0 0 1 -1.5,-1.5 1.5,1.5 0 0 1 1.5,-1.5 1.5,1.5 0 0 1 1.5,1.5 z m 0,-33 a 1.5,1.5 0 0 1 -1.5,1.5 1.5,1.5 0 0 1 -1.5,-1.5 1.5,1.5 0 0 1 1.5,-1.5 1.5,1.5 0 0 1 1.5,1.5 z m 95.00003,33 a 1.5,1.5 0 0 1 -1.5,1.5 1.5,1.5 0 0 1 -1.5,-1.5 1.5,1.5 0 0 1 1.5,-1.5 1.5,1.5 0 0 1 1.5,1.5 z m 0,-33 a 1.5,1.5 0 0 1 -1.5,1.5 1.5,1.5 0 0 1 -1.5,-1.5 1.5,1.5 0 0 1 1.5,-1.5 1.5,1.5 0 0 1 1.5,1.5 z M 151.99992,441.99998 h 107 c 1.108,0 2,0.892 2,2 v 56.00001 c 0,1.10799 -0.892,2 -2,2 h -107 c -1.108,0 -2,-0.89201 -2,-2 v -56 c 0,-1.108 0.892,-2 2,-2.00001 z" /><path id="rect4-8-8" style="fill:none;fill-opacity:0.538163;stroke:#000000;stroke-width:0.0720001" d="m 291.00017,364.50009 h -8 v -15 h 8 z m 7.00023,17.49992 v -8.49973 h 2.99982 v -11.00036 h -2.99982 v -10.99985 h 2.99982 v -10.99983 h -2.99982 v -8.50027 h -27.00042 v 8.50027 h -2.99982 v 10.99983 h 2.99982 v 10.99985 h -2.99982 v 11.00036 h 2.99982 v 8.49973 z" /><path id="path1-5" style="fill:none;stroke:#000000;stroke-width:0.072" d="m 284.50019,397 c -0.82842,0 -1.5,-0.67157 -1.5,-1.5 0,-0.82843 0.67158,-1.5 1.5,-1.5 0.82843,0 1.5,0.67157 1.5,1.5 0,0.82843 -0.67157,1.5 -1.5,1.5 z m 0,34.99997 c -0.82842,0 -1.5,-0.67157 -1.5,-1.5 0,-0.82843 0.67158,-1.5 1.5,-1.5 0.82843,0 1.5,0.67157 1.5,1.5 0,0.82843 -0.67157,1.5 -1.5,1.5 z m 13.49969,6.00004 v -8.50026 h 3.00034 v -10.99984 h -3.00034 v -10.99985 h 3.00034 V 396.4997 h -3.00034 v -8.49974 h -26.9999 v 8.49974 h -2.99982 v 11.00036 h 2.99982 v 10.99984 h -2.99982 v 10.99985 h 2.99982 v 8.50026 z" /><path id="rect10-8-0-7" style="fill:none;fill-opacity:0.538163;stroke:#000000;stroke-width:0.072" d="m 170.99993,419 h -8.99999 c -0.554,0 -1,0.446 -1,1 v 5 c 0,0.55399 0.446,1 1,1 h 8.99999 c 0.554,0 1,-0.44601 1,-1 v -5 c 0,-0.554 -0.446,-1 -1,-1 z m 77,4.99997 h -22.99998 c -0.554,0 -1,0.446 -1,1 V 429 c 0,0.55399 0.446,1 1,1 h 22.99998 c 0.554,0 1,-0.44601 1,-1 v -4.00003 c 0,-0.554 -0.446,-1 -1,-1 z m -84.50004,-21.99972 v 2.99982 h -13.49995 v 26.9999 h 13.49995 v 2.99981 h 10.99985 v -2.99981 h 24.00008 v 2.99981 h 11.00037 v -2.99981 h 23.99957 v 2.99981 h 11.00036 v -2.99981 h 13.49995 v -26.9999 h -13.49995 v -2.99982 h -11.00036 v 2.99982 h -23.99957 v -2.99982 h -11.00037 v 2.99982 h -24.00008 v -2.99982 z m 56.50003,16.49973 a 1.5,1.5 0 0 0 1.5,1.5 1.5,1.5 0 0 0 1.5,-1.5 1.5,1.5 0 0 0 -1.5,-1.5 1.5,1.5 0 0 0 -1.5,1.5 z m -35,0 a 1.5,1.5 0 0 0 1.5,1.5 1.5,1.5 0 0 0 1.5,-1.5 1.5,1.5 0 0 0 -1.5,-1.5 1.5,1.5 0 0 0 -1.5,1.5 z" /></g></svg>
