<?xml version="1.0" encoding="UTF-8" standalone="no"?>
<!-- Created with Inkscape (http://www.inkscape.org/) -->

<svg width="148.07172mm" height="165.07201mm" viewBox="0 0 148.07172 165.07201" version="1.1" id="svg1" inkscape:version="1.3.2 (091e20e, 2023-11-25, custom)" sodipodi:docname="casing_fullsize_wemos.svg" xml:space="preserve" inkscape:export-filename="casing_fullsize.svg" inkscape:export-xdpi="96" inkscape:export-ydpi="96" xmlns:inkscape="http://www.inkscape.org/namespaces/inkscape" xmlns:sodipodi="http://sodipodi.sourceforge.net/DTD/sodipodi-0.dtd" xmlns="http://www.w3.org/2000/svg" xmlns:svg="http://www.w3.org/2000/svg"><sodipodi:namedview id="namedview1" pagecolor="#ffffff" bordercolor="#000000" borderopacity="0.25" inkscape:showpageshadow="2" inkscape:pageopacity="0.0" inkscape:pagecheckerboard="0" inkscape:deskcolor="#d1d1d1" inkscape:document-units="mm" showgrid="false" inkscape:zoom="1.4142136" inkscape:cx="325.62267" inkscape:cy="362.39223" inkscape:window-width="2560" inkscape:window-height="1369" inkscape:window-x="-8" inkscape:window-y="-8" inkscape:window-maximized="1" inkscape:current-layer="layer1" showguides="true"><inkscape:grid id="grid1" units="mm" originx="-48.963999" originy="-273.96398" spacingx="0.99999997" spacingy="0.99999997" empcolor="#0099e5" empopacity="0.30196078" color="#0099e5" opacity="0.14901961" empspacing="5" dotted="false" gridanglex="30" gridanglez="30" visible="false" /></sodipodi:namedview><defs id="defs1" /><g inkscape:label="Layer 1" inkscape:groupmode="layer" id="layer1" transform="translate(-48.963996,-273.96399)"><path id="rect1-4-8" style="fill:none;stroke:#000000;stroke-width:0.072;stroke-dasharray:none;stroke-opacity:1" d="m 166.99999,273.99999 v 9.99991 h -3.00033 v 10.99984 h 3.00033 v 10.00043 h 26.9999 v -10.00043 h 2.99982 V 283.9999 h -2.99982 v -9.99991 z" /><path id="path3-4-3-0-0-25" style="fill:none;stroke:#000000;stroke-width:0.072" d="m 153.49998,282 a 1.5,1.5 0 0 1 -1.5,1.5 1.5,1.5 0 0 1 -1.5,-1.5 1.5,1.5 0 0 1 1.5,-1.5 1.5,1.5 0 0 1 1.5,1.5 z m 2e-5,25 a 1.5,1.5 0 0 1 -1.5,1.5 1.5,1.5 0 0 1 -1.5,-1.5 1.5,1.5 0 0 1 1.5,-1.5 1.5,1.5 0 0 1 1.5,1.5 z m -95.000008,0 a 1.5,1.5 0 0 1 -1.5,1.5 1.5,1.5 0 0 1 -1.5,-1.5 1.5,1.5 0 0 1 1.5,-1.5 1.5,1.5 0 0 1 1.5,1.5 z m 0,-25 a 1.5,1.5 0 0 1 -1.5,1.5 1.5,1.5 0 0 1 -1.5,-1.5 1.5,1.5 0 0 1 1.5,-1.5 1.5,1.5 0 0 1 1.5,1.5 z m 99.499988,7 v 11 h -3 v -11 z m -103.999991,0 v 11 h -3 V 289 Z M 134,310 h 11 v 3 h -11 z m -70.000015,0 h 11 v 3 h -11 z m 35.000007,0 h 10.999998 v 3 H 98.999992 Z M 134,276 h 11 v 3 h -11 z m -70.000008,0 h 11 v 3 h -11 z m 35,0 h 10.999998 v 3 H 98.999992 Z M 51.000008,274 H 158.00001 c 1.108,0 2,0.892 2,2 v 37 c 0,1.108 -0.892,2 -2,2 H 51.000008 c -1.108,0 -2,-0.892 -2,-2 v -37 c 0,-1.108 0.892,-2 2,-2 z" /><path id="rect8-1-3" style="fill:none;stroke:#000000;stroke-width:0.072" transform="rotate(-90)" d="m -387.5,57.999809 h 4 c 0.554,0 1,0.446 1,1 v 9 c 0,0.554 -0.446,1 -1,1 h -4 c -0.554,0 -1,-0.446 -1,-1 v -9 c 0,-0.554 0.446,-1 1,-1 z m 8.5,78.999991 v 5 c 0,1.108 -0.892,2 -2,2 h -1 c -1.108,0 -2,-0.892 -2,-2 v -5 c 0,-1.108 0.892,-2 2,-2 h 1 c 1.108,0 2,0.892 2,2 z m 19.00019,-75.000076 h -3.00033 V 49 h -26.99991 v 12.999724 h -2.99981 v 10.999845 h 2.99981 v 24.000082 h -2.99981 v 11.000369 h 2.99981 v 23.99956 h -2.99981 v 11.00037 h 2.99981 v 12.99972 h 26.99991 v -12.99972 h 3.00033 v -11.00037 h -3.00033 v -23.99956 h 3.00033 V 96.999651 h -3.00033 V 72.999569 h 3.00033 z" /><path id="rect12-1-8" style="fill:none;stroke:#000000;stroke-width:0.072" transform="rotate(90)" d="m 317.49979,-181.57007 h 14 v 7 h -14 z M 309,-166.99999 h 9.9999 v 3.00033 h 10.99985 v -3.00033 h 9.9999 v -26.9999 h -9.9999 v -2.99982 H 318.9999 v 2.99982 H 309 Z" /><path id="path13-5-6" style="fill:none;stroke:#000000;stroke-width:0.072" d="m 86.49984,336.50021 a 1.5,1.5 0 0 1 -1.5,1.5 1.5,1.5 0 0 1 -1.5,-1.5 1.5,1.5 0 0 1 1.5,-1.5 1.5,1.5 0 0 1 1.5,1.5 z m 34.99999,0 a 1.5,1.5 0 0 1 -1.5,1.5 1.5,1.5 0 0 1 -1.5,-1.5 1.5,1.5 0 0 1 1.5,-1.5 1.5,1.5 0 0 1 1.5,1.5 z M 61.999722,320.00017 v 2.99982 H 48.999998 v 27.00042 h 12.999724 v 2.99981 h 10.999845 v -2.99981 h 24.000082 v 2.99981 h 11.000371 v -2.99981 h 23.99956 v 2.99981 h 11.00037 v -2.99981 h 12.99972 v -27.00042 h -12.99972 v -2.99982 h -11.00037 v 2.99982 h -23.99956 v -2.99982 H 96.999649 v 2.99982 H 72.999567 v -2.99982 z" /><path id="path3-4-3-0-0-25-1" style="fill:none;stroke:#000000;stroke-width:0.072" d="m 153.49997,406 a 1.5,1.5 0 0 1 -1.5,1.5 1.5,1.5 0 0 1 -1.5,-1.5 1.5,1.5 0 0 1 1.5,-1.5 1.5,1.5 0 0 1 1.5,1.5 z m 1e-5,25 a 1.5,1.5 0 0 1 -1.5,1.5 1.5,1.5 0 0 1 -1.5,-1.5 1.5,1.5 0 0 1 1.5,-1.5 1.5,1.5 0 0 1 1.5,1.5 z m -94.999995,0 a 1.5,1.5 0 0 1 -1.5,1.5 1.5,1.5 0 0 1 -1.5,-1.5 1.5,1.5 0 0 1 1.5,-1.5 1.5,1.5 0 0 1 1.5,1.5 z m 0,-25 a 1.5,1.5 0 0 1 -1.5,1.5 1.5,1.5 0 0 1 -1.5,-1.5 1.5,1.5 0 0 1 1.5,-1.5 1.5,1.5 0 0 1 1.5,1.5 z m 99.499995,7 v 11 h -3 v -11 z m -103.999991,0 v 11 h -3 v -11 z m 79.999991,21 h 11 v 3 h -11 z m -70.000003,0 h 11 v 3 h -11 z m 35.000008,0 h 10.999995 v 3 H 98.999985 Z m 34.999995,-34 h 11 v 3 h -11 z m -69.999995,0 h 11 v 3 h -11 z m 35,0 h 10.999995 v 3 H 98.999985 Z M 50.999996,398 H 158 c 1.108,0 2,0.892 2,2 v 37 c 0,1.108 -0.892,2 -2,2 H 50.999996 c -1.108,0 -2,-0.892 -2,-2 v -37 c 0,-1.108 0.892,-2 2,-2 z" /></g></svg>
