<?xml version="1.0" encoding="UTF-8" standalone="no"?>
<!-- Created with Inkscape (http://www.inkscape.org/) -->

<svg width="228.07204mm" height="227.07201mm" viewBox="0 0 228.07204 227.072" version="1.1" id="svg1" inkscape:version="1.3.2 (091e20e, 2023-11-25, custom)" sodipodi:docname="raspberry_pi_4b_case.svg" xml:space="preserve" inkscape:export-filename="casing_rpi.svg" inkscape:export-xdpi="96" inkscape:export-ydpi="96" xmlns:inkscape="http://www.inkscape.org/namespaces/inkscape" xmlns:sodipodi="http://sodipodi.sourceforge.net/DTD/sodipodi-0.dtd" xmlns="http://www.w3.org/2000/svg" xmlns:svg="http://www.w3.org/2000/svg"><sodipodi:namedview id="namedview1" pagecolor="#ffffff" bordercolor="#000000" borderopacity="0.25" inkscape:showpageshadow="2" inkscape:pageopacity="0.0" inkscape:pagecheckerboard="0" inkscape:deskcolor="#d1d1d1" inkscape:document-units="mm" showgrid="true" inkscape:zoom="0.7071068" inkscape:cx="382.54476" inkscape:cy="477.29706" inkscape:window-width="2560" inkscape:window-height="1369" inkscape:window-x="-8" inkscape:window-y="-8" inkscape:window-maximized="1" inkscape:current-layer="layer1" showguides="false"><inkscape:grid id="grid1" units="mm" originx="-140.964" originy="-331.96401" spacingx="0.99999997" spacingy="0.99999997" empcolor="#0099e5" empopacity="0.30196078" color="#0099e5" opacity="0.14901961" empspacing="5" dotted="false" gridanglex="30" gridanglez="30" visible="true" /><sodipodi:guide position="104.03598,3056.8198" orientation="1,0" id="guide5" inkscape:locked="false" /><sodipodi:guide position="104.03598,3056.8198" orientation="0,-1" id="guide6" inkscape:locked="false" /><sodipodi:guide position="19.035993,3056.8198" orientation="1,0" id="guide7" inkscape:locked="false" /><sodipodi:guide position="19.035993,3000.8198" orientation="0,-1" id="guide8" inkscape:locked="false" /></sodipodi:namedview><defs id="defs1" /><g inkscape:label="Layer 1" inkscape:groupmode="layer" id="layer1" transform="translate(-140.964,-331.964)"><path id="rect2-6" style="fill:none;fill-opacity:0.538163;stroke:#000000;stroke-width:0.072" d="m 269.99991,342 h 16 v 52.00007 h -16 z M 263,339.00044 v 8.00003 h -2.99981 v 10.99984 H 263 v 19.99981 h -2.99981 v 11.00037 H 263 V 397 h 26.99991 v -7.99951 h 3.00033 v -11.00037 h -3.00033 v -19.99981 h 3.00033 v -10.99984 h -3.00033 v -8.00003 z" /><path id="rect4-6" style="fill:none;fill-opacity:0.538163;stroke:#000000;stroke-width:0.072" d="m 160,339.99997 h 84.99999 v 56.00008 H 160 Z M 146.50002,335.75 a 1.75,1.75 0 0 1 -1.75,1.75 1.75,1.75 0 0 1 -1.75,-1.75 1.75,1.75 0 0 1 1.75,-1.75 1.75,1.75 0 0 1 1.75,1.75 z m 0,64.5 a 1.75,1.75 0 0 1 -1.75,1.75 1.75,1.75 0 0 1 -1.75,-1.75 1.75,1.75 0 0 1 1.75,-1.75 1.75,1.75 0 0 1 1.75,1.75 z M 250,400.25 a 1.75,1.75 0 0 1 -1.75,1.75 1.75,1.75 0 0 1 -1.75,-1.75 1.75,1.75 0 0 1 1.75,-1.75 1.75,1.75 0 0 1 1.75,1.75 z m 0,-64.5 a 1.75,1.75 0 0 1 -1.75,1.75 1.75,1.75 0 0 1 -1.75,-1.75 1.75,1.75 0 0 1 1.75,-1.75 1.75,1.75 0 0 1 1.75,1.75 z M 156.00002,399 h 11 v 3 h -11 z m 70,0 h 11 v 3 h -11 z m -35,0 h 11 v 3 h -11 z m -35,-65 h 11 v 3 h -11 z m 70,0 h 11 v 3 h -11 z m -35,0 h 11 v 3 h -11 z M 143,389 v -11 h 3 v 11 z m 0,-31 v -11 h 3 v 11 z m 103.99998,31 v -11 h 3 v 11 z m 0,-31 v -11 h 3 v 11 z M 143,332 h 107 c 1.108,0 2,0.892 2,2 v 68.00001 c 0,1.108 -0.892,2 -2,2 H 143 c -1.108,0 -2,-0.892 -2,-2 V 334 c 0,-1.108 0.892,-2 2,-2 z" /><path id="path3-1-0-7-0-2" style="fill:none;stroke:#000000;stroke-width:0.072" d="m 146.50003,412.75 a 1.75,1.75 0 0 1 -1.75,1.75 1.75,1.75 0 0 1 -1.75,-1.75 1.75,1.75 0 0 1 1.75,-1.75 1.75,1.75 0 0 1 1.75,1.75 z m 0,64.5 a 1.75,1.75 0 0 1 -1.75,1.75 1.75,1.75 0 0 1 -1.75,-1.75 1.75,1.75 0 0 1 1.75,-1.75 1.75,1.75 0 0 1 1.75,1.75 z m 103.49999,0 a 1.75,1.75 0 0 1 -1.75,1.75 1.75,1.75 0 0 1 -1.75,-1.75 1.75,1.75 0 0 1 1.75,-1.75 1.75,1.75 0 0 1 1.75,1.75 z m 0,-64.5 a 1.75,1.75 0 0 1 -1.75,1.75 1.75,1.75 0 0 1 -1.75,-1.75 1.75,1.75 0 0 1 1.75,-1.75 1.75,1.75 0 0 1 1.75,1.75 z M 156.00003,476 h 11 v 3 h -11 z m 70,0 h 11 v 3 h -11 z m -35,0 h 11 v 3 h -11 z m -35,-65 h 11 v 3 h -11 z m 70,0 h 11 v 3 h -11 z m -35,0 h 11 v 3 h -11 z m -48.00001,55 v -11 h 3 v 11 z m 0,-31 v -11 h 3 v 11 z M 247,466 v -11 h 3 v 11 z m 0,-31 v -11 h 3 v 11 z m -23.99998,-14.5 a 1.5,1.5 0 0 1 -1.5,1.5 1.5,1.5 0 0 1 -1.5,-1.5 1.5,1.5 0 0 1 1.5,-1.5 1.5,1.5 0 0 1 1.5,1.5 z m 0,49 a 1.5,1.5 0 0 1 -1.5,1.5 1.5,1.5 0 0 1 -1.5,-1.5 1.5,1.5 0 0 1 1.5,-1.5 1.5,1.5 0 0 1 1.5,1.5 z m -58,0 a 1.5,1.5 0 0 1 -1.5,1.5 1.5,1.5 0 0 1 -1.5,-1.5 1.5,1.5 0 0 1 1.5,-1.5 1.5,1.5 0 0 1 1.5,1.5 z m 0,-49 a 1.5,1.5 0 0 1 -1.5,1.5 1.5,1.5 0 0 1 -1.5,-1.5 1.5,1.5 0 0 1 1.5,-1.5 1.5,1.5 0 0 1 1.5,1.5 z m -22,-11.5 h 107 c 1.108,0 2,0.892 2,2 v 68.00001 c 0,1.108 -0.892,2 -2,2 h -107 c -1.108,0 -2,-0.892 -2,-2 V 411 c 0,-1.108 0.892,-2 2,-2 z" /><path id="rect5-9-3-6-4" style="fill:none;fill-opacity:0.538163;stroke:#000000;stroke-width:0.0719999" d="m 306.99973,354.99969 h 12.99941 c 0.554,0 1,0.446 1,1 v 4.5e-4 c 0,0.554 -0.446,1 -1,1 h -12.99941 c -0.554,0 -1,-0.446 -1,-1 v -4.5e-4 c 0,-0.554 0.446,-1 1,-1 z m 0,6 h 12.99941 c 0.554,0 1,0.446 1,1 v 4.5e-4 c 0,0.554 -0.446,1 -1,1 h -12.99941 c -0.554,0 -1,-0.446 -1,-1 v -4.5e-4 c 0,-0.554 0.446,-1 1,-1 z m 5.8e-4,-12 h 12.99941 c 0.554,0 1,0.446 1,1 v 4.5e-4 c 0,0.554 -0.446,1 -1,1 h -12.99941 c -0.554,0 -1,-0.446 -1,-1 v -4.5e-4 c 0,-0.554 0.446,-1 1,-1 z m -5.8e-4,24 h 12.99941 c 0.554,0 1,0.446 1,1 v 4.5e-4 c 0,0.554 -0.446,1 -1,1 h -12.99941 c -0.554,0 -1,-0.446 -1,-1 v -4.5e-4 c 0,-0.554 0.446,-1 1,-1 z m 5.8e-4,12.00043 h 12.99941 c 0.554,0 1,0.446 1,1 v 4.4e-4 c 0,0.554 -0.446,1 -1,1 h -12.99941 c -0.554,0 -1,-0.446 -1,-1 v -4.4e-4 c 0,-0.554 0.446,-1 1,-1 z m -5.8e-4,-6.00043 h 12.99941 c 0.554,0 1,0.446 1,1 v 4.5e-4 c 0,0.554 -0.446,1 -1,1 h -12.99941 c -0.554,0 -1,-0.446 -1,-1 v -4.5e-4 c 0,-0.554 0.446,-1 1,-1 z m 5.8e-4,-12 h 12.99941 c 0.554,0 1,0.446 1,1 v 4.5e-4 c 0,0.554 -0.446,1 -1,1 h -12.99941 c -0.554,0 -1,-0.446 -1,-1 v -4.5e-4 c 0,-0.554 0.446,-1 1,-1 z m -7.0005,-27.99956 v 8.00003 H 297 V 358 h 2.99981 v 19.99981 H 297 v 11.00037 h 2.99981 v 7.99951 h 26.99991 v -7.99951 h 3.00033 v -11.00037 h -3.00033 V 358 h 3.00033 v -10.99984 h -3.00033 v -8.00003 z" /><path id="path13-5-6-4-6-0" style="fill:none;stroke:#000000;stroke-width:0.072" transform="rotate(90)" d="m 442.49985,-276.49976 a 1.5,1.5 0 0 1 -1.5,1.5 1.5,1.5 0 0 1 -1.5,-1.5 1.5,1.5 0 0 1 1.5,-1.5 1.5,1.5 0 0 1 1.5,1.5 z m 35,0 a 1.5,1.5 0 0 1 -1.5,1.5 1.5,1.5 0 0 1 -1.5,-1.5 1.5,1.5 0 0 1 1.5,-1.5 1.5,1.5 0 0 1 1.5,1.5 z m -59.50021,-16.49995 v 2.99982 h -8.00003 v 26.9999 h 8.00003 v 3.00034 H 429 v -3.00034 h 24.00009 v 3.00034 h 10.99984 v -3.00034 h 24.00009 v 3.00034 h 10.99984 v -3.00034 h 8.00003 v -26.9999 h -8.00003 v -2.99982 h -10.99984 v 2.99982 h -24.00009 v -2.99982 h -10.99984 v 2.99982 H 429 v -2.99982 z" /><path id="path8-0-9-8" style="fill:none;stroke:#000000;stroke-width:0.072" d="m 210.00002,511 a 1.4999999,1.5 0 0 1 -1.5,1.5 1.4999999,1.5 0 0 1 -1.5,-1.5 1.4999999,1.5 0 0 1 1.5,-1.5 1.4999999,1.5 0 0 1 1.5,1.5 z m 0,24 a 1.4999999,1.5 0 0 1 -1.5,1.5 1.4999999,1.5 0 0 1 -1.5,-1.5 1.4999999,1.5 0 0 1 1.5,-1.5 1.4999999,1.5 0 0 1 1.5,1.5 z m -24,0 a 1.4999999,1.5 0 0 1 -1.5,1.5 1.4999999,1.5 0 0 1 -1.5,-1.5 1.4999999,1.5 0 0 1 1.5,-1.5 1.4999999,1.5 0 0 1 1.5,1.5 z m 0,-24 a 1.4999999,1.5 0 0 1 -1.5,1.5 1.4999999,1.5 0 0 1 -1.5,-1.5 1.4999999,1.5 0 0 1 1.5,-1.5 1.4999999,1.5 0 0 1 1.5,1.5 z m 24.5,12 a 14,14 0 0 1 -14,14 14,14 0 0 1 -14,-14 14,14 0 0 1 14,-14 14,14 0 0 1 14,14 z m -63.99999,-32.25 a 1.75,1.75 0 0 1 -1.75,1.75 1.75,1.75 0 0 1 -1.75,-1.75 1.75,1.75 0 0 1 1.75,-1.75 1.75,1.75 0 0 1 1.75,1.75 z m 0,64.5 a 1.75,1.75 0 0 1 -1.75,1.75 1.75,1.75 0 0 1 -1.75,-1.75 1.75,1.75 0 0 1 1.75,-1.75 1.75,1.75 0 0 1 1.75,1.75 z m 103.49999,0 a 1.75,1.75 0 0 1 -1.75,1.75 1.75,1.75 0 0 1 -1.75,-1.75 1.75,1.75 0 0 1 1.75,-1.75 1.75,1.75 0 0 1 1.75,1.75 z m 0,-64.5 a 1.75,1.75 0 0 1 -1.75,1.75 1.75,1.75 0 0 1 -1.75,-1.75 1.75,1.75 0 0 1 1.75,-1.75 1.75,1.75 0 0 1 1.75,1.75 z M 156.00003,554 h 11 v 3 h -11 z m 70,0 h 11 v 3 h -11 z m -35,0 h 11 v 3 h -11 z m -35,-65 h 11 v 3 h -11 z m 70,0 h 11 v 3 h -11 z m -35,0 h 11 v 3 h -11 z m -48.00001,55 v -11 h 3 v 11 z m 0,-31 v -11 h 3 v 11 z M 247,544 v -11 h 3 v 11 z m 0,-31 v -11 h 3 v 11 z M 143.00002,487 h 107 c 1.108,0 2,0.892 2,2 v 68.00001 c 0,1.108 -0.892,2 -2,2 h -107 c -1.108,0 -2,-0.892 -2,-2 V 489 c 0,-1.108 0.892,-2 2,-2 z" /><path id="rect9-2-9-2-7" style="fill:none;fill-opacity:0.538163;stroke:#000000;stroke-width:0.0720001" d="m 308.00074,426.99952 c -1.10799,0 -2.00039,0.89187 -2.00039,1.99987 v 49.00063 c 0,1.108 0.8924,1.99988 2.00039,1.99988 h 1.00046 3.99924 0.99994 c 1.108,0 2.00039,-0.8924 2.00039,-2.0004 v -5.99963 c 0,-0.74285 -0.40227,-1.38725 -1.00045,-1.73219 v -8.26823 h 8.00003 a 2,2 0 0 0 1.99987,-1.99988 v -12.99972 a 2,2 0 0 0 -1.99987,-2.0004 h -8.00003 v -16.00006 c 0,-1.108 -0.89188,-1.99987 -1.99988,-1.99987 z m 22.99931,-8.99988 h -2.99982 v -8.00003 h -26.9999 v 8.00003 h -3.00034 V 429 h 3.00034 v 24.00009 h -3.00034 v 10.99984 h 3.00034 v 24.00009 h -3.00034 v 10.99984 h 3.00034 v 8.00003 h 26.9999 v -8.00003 h 2.99982 v -10.99984 h -2.99982 v -24.00009 h 2.99982 v -10.99984 h -2.99982 V 429 h 2.99982 z" /><path d="m 356.00032,409.99961 v 3.99976 c 0,0.554 -0.44594,0.99994 -0.99994,0.99994 h -5.00021 c -0.554,0 -0.99994,-0.44594 -0.99994,-0.99994 v -3.99976 h -9.99991 v 8.00003 h -3.00033 V 429 h 3.00033 v 24.00009 h -3.00033 v 10.99985 h 3.00033 v 24.00008 h -3.00033 v 10.99985 h 3.00033 v 8.00002 h 26.9999 v -8.00002 h 2.99982 v -10.99985 h -2.99982 v -24.00008 h 2.99982 v -10.99985 h -2.99982 V 429 h 2.99982 v -11.00036 h -2.99982 v -8.00003 z m -9.99991,17 h 4.99969 c 1.108,0 2.0004,0.89188 2.0004,1.99988 v 41.26828 c 0.59794,0.34501 0.99994,0.98901 0.99994,1.73168 v 6.00015 c 0,1.108 -0.8924,1.99988 -2.0004,1.99988 h -0.99477 c -0.002,10e-6 -0.003,5.1e-4 -0.005,5.1e-4 h -4.99969 c -1.108,0 -2.0004,-0.89239 -2.0004,-2.00039 v -49.00011 c 0,-1.108 0.8924,-1.99988 2.0004,-1.99988 z" style="fill:none;fill-opacity:0.538163;stroke:#000000;stroke-width:0.072;stroke-dasharray:none" id="path2" /><path id="path13-5-4-3-6" style="fill:none;stroke:#000000;stroke-width:0.072" d="m 350.5,383.9999 a 1.5,1.5 0 0 1 1.5,1.5 1.5,1.5 0 0 1 -1.5,1.5 1.5,1.5 0 0 1 -1.5,-1.5 1.5,1.5 0 0 1 1.5,-1.5 z m 0,-34.99997 a 1.5,1.5 0 0 1 1.5,1.5 1.5,1.5 0 0 1 -1.5,1.5 1.5,1.5 0 0 1 -1.5,-1.5 1.5,1.5 0 0 1 1.5,-1.5 z m 3.49979,-9.9998 v 3.99976 c 0,0.554 -0.44594,0.99994 -0.99994,0.99994 h -4.99968 c -0.554,0 -0.99994,-0.44594 -0.99994,-0.99994 v -3.99976 h -10.00042 v 8.00003 h -2.99982 v 10.99985 h 2.99982 v 19.99981 h -2.99982 v 11.00036 h 2.99982 v 7.99951 h 26.9999 v -7.99951 h 3.00032 v -11.00036 h -3.00032 v -19.99981 h 3.00032 v -10.99985 h -3.00032 v -8.00003 z m -9.9999,15.99954 h 12.9992 c 0.554,0 0.99995,0.44594 0.99995,0.99994 v 5.2e-4 c 0,0.554 -0.44594,0.99994 -0.99995,0.99994 H 343.9999 c -0.554,0 -0.99994,-0.44594 -0.99994,-0.99994 v -5.2e-4 c 0,-0.554 0.44594,-0.99994 0.99993,-0.99994 z m 0,6.00015 h 12.9992 c 0.554,0 0.99995,0.44594 0.99995,0.99994 0,0.554 -0.44594,1.00046 -0.99995,1.00046 H 343.9999 c -0.554,0 -0.99994,-0.44646 -0.99994,-1.00046 0,-0.554 0.44594,-0.99994 0.99993,-0.99994 z m 5.1e-4,5.99964 h 12.99921 c 0.554,0 0.99994,0.44594 0.99994,0.99994 v 5.1e-4 c 0,0.554 -0.44594,0.99994 -0.99994,0.99994 H 344.0004 c -0.554,0 -0.99994,-0.44594 -0.99994,-0.99994 v -5.1e-4 c 0,-0.554 0.44594,-0.99994 0.99994,-0.99994 z m -5.1e-4,6.00015 h 12.9992 c 0.554,0 0.99995,0.44594 0.99995,0.99994 v 5.1e-4 c 0,0.554 -0.44594,0.99994 -0.99995,0.99994 H 343.9999 c -0.554,0 -0.99994,-0.44594 -0.99994,-0.99994 v -5.1e-4 c 0,-0.554 0.44594,-0.99994 0.99993,-0.99994 z m 0,6.00015 h 12.9992 c 0.554,0 0.99995,0.44594 0.99995,0.99994 v 5.2e-4 c 0,0.55399 -0.44594,0.99993 -0.99995,0.99993 H 343.9999 c -0.554,0 -0.99994,-0.44594 -0.99994,-0.99993 v -5.2e-4 c 0,-0.554 0.44594,-0.99994 0.99993,-0.99994 z" /></g></svg>
